# xmcd CD database file
#
# Track frame offsets:
#	150
#	19167
#	39191
#	58377
#	80042
#	95342
#	119229
#	138729
#	157746
#	177770
#	196956
#	218621
#	233921
#	257808
#
# Disc length: 3695 seconds
#
# Revision: 0
# Processed by: cddbd v1.5.2PL0 Copyright (c) Steve Scherf et al.
# Submitted via: CDex 1.70beta2
#
DISCID=c30e6d0e
DTITLE=CYTOKINE - a+jugos
DYEAR=2009
DGENRE=東方アレンジ
TTITLE0=Closed border
TTITLE1=envY
TTITLE2=losT paradise
TTITLE3=third interpretatiOn
TTITLE4=lullaby for KIndness
TTITLE5=Nuclear fusion
TTITLE6=seE new the world, she knew the world
TTITLE7=Closed border -instrumental-
TTITLE8=envY -instrumental-
TTITLE9=losT paradise -instrumental-
TTITLE10=third interpretatiOn -instrumental-
TTITLE11=lullaby for KIndness -instrumental-
TTITLE12=Nuclear fusion -instrumental-
TTITLE13=seE new the world, she knew the world -instrumental-
EXTD=YEAR: 2009
EXTT0=
EXTT1=
EXTT2=
EXTT3=
EXTT4=
EXTT5=
EXTT6=
EXTT7=
EXTT8=
EXTT9=
EXTT10=
EXTT11=
EXTT12=
EXTT13=
PLAYORDER=
